<?xml version="1.0" standalone="no"?>
<!DOCTYPE svg PUBLIC "-//W3C//DTD SVG 20010904//EN"
        "http://www.w3.org/TR/2001/REC-SVG-20010904/DTD/svg10.dtd">
<svg version="1.0" xmlns="http://www.w3.org/2000/svg"
     width="690.000000pt" height="465.000000pt" viewBox="0 0 690.000000 465.000000"
     preserveAspectRatio="xMidYMid meet">
    <metadata>
        Created by potrace 1.15, written by Peter Selinger 2001-2017
    </metadata>
    <g transform="translate(0.000000,465.000000) scale(0.100000,-0.100000)"
       fill="#000000" stroke="none">
        <path d="M778 4451 c-10 -20 -18 -61 -18 -90 0 -33 -5 -58 -15 -67 -10 -10
-15 -35 -15 -74 0 -32 -5 -60 -10 -62 -10 -3 -25 -99 -37 -233 -3 -33 -10 -63
-16 -67 -7 -4 -13 -43 -16 -90 -2 -46 -8 -86 -14 -90 -6 -4 -13 -37 -15 -75
-2 -37 -8 -73 -13 -79 -13 -16 -30 -126 -36 -223 -3 -54 -10 -89 -19 -98 -9
-10 -14 -37 -14 -83 0 -39 -5 -70 -11 -72 -12 -4 -29 -96 -36 -198 -3 -41 -10
-78 -16 -82 -6 -4 -13 -40 -15 -80 -3 -40 -9 -76 -15 -79 -5 -4 -13 -38 -16
-75 -4 -38 -10 -75 -15 -83 -9 -15 -22 -102 -32 -226 -4 -38 -11 -73 -17 -77
-6 -4 -13 -40 -15 -80 -3 -40 -9 -76 -15 -80 -6 -3 -13 -35 -15 -70 -3 -35 -9
-66 -14 -69 -9 -6 -21 -90 -35 -234 -3 -33 -10 -63 -15 -66 -6 -4 -13 -40 -16
-80 -2 -41 -9 -77 -14 -80 -9 -6 -25 -122 -35 -253 -3 -40 -11 -75 -19 -83 -8
-8 -14 -34 -14 -58 0 -24 -5 -45 -11 -47 -6 -2 -13 -42 -16 -93 -3 -50 -12
-102 -19 -117 -8 -15 -14 -52 -14 -83 0 -30 -4 -55 -10 -55 -6 0 -10 -28 -10
-65 0 -37 -4 -65 -10 -65 -17 0 -11 -58 7 -80 22 -26 107 -29 117 -4 5 13 22
15 103 11 54 -2 127 -12 163 -22 62 -18 169 -19 2675 -22 2987 -3 2698 -12
2768 87 52 74 76 159 117 410 44 274 75 450 91 520 6 25 15 74 20 110 5 36 23
139 40 230 16 91 34 192 38 225 5 33 23 137 41 230 17 94 35 190 40 215 47
269 73 414 80 460 5 30 14 80 20 110 5 30 20 109 31 175 41 241 69 391 78 430
5 22 15 76 21 120 7 44 18 115 26 157 18 95 21 248 4 287 -7 18 -10 58 -6 107
9 136 17 178 39 202 l22 23 -25 19 c-24 19 -85 20 -2905 20 l-2880 -1 -17 -38z
m5668 -122 c18 -20 18 -22 1 -34 -13 -9 -17 -27 -17 -72 0 -42 -5 -64 -15 -73
-11 -9 -15 -34 -15 -95 0 -48 -4 -85 -10 -87 -6 -2 -13 -34 -17 -71 -3 -37
-10 -70 -14 -73 -5 -3 -9 -31 -9 -63 0 -40 -5 -63 -15 -71 -11 -9 -15 -33 -15
-86 0 -41 -4 -74 -9 -74 -5 0 -12 -36 -16 -80 -4 -44 -11 -82 -15 -85 -5 -3
-12 -34 -15 -70 -4 -36 -11 -68 -16 -71 -5 -3 -9 -35 -9 -72 -1 -43 -6 -74
-15 -86 -10 -13 -15 -43 -15 -87 0 -37 -4 -70 -9 -74 -5 -3 -12 -31 -16 -63
-3 -31 -10 -65 -15 -74 -6 -10 -10 -44 -10 -75 0 -32 -7 -71 -15 -87 -9 -16
-15 -55 -15 -93 0 -44 -5 -69 -15 -79 -10 -11 -15 -36 -15 -79 0 -35 -4 -66
-9 -70 -5 -3 -12 -31 -16 -63 -3 -31 -10 -65 -15 -74 -6 -10 -10 -49 -10 -87
0 -49 -4 -72 -15 -81 -10 -8 -15 -31 -15 -71 0 -32 -4 -60 -9 -63 -5 -4 -12
-40 -16 -81 -4 -42 -11 -78 -16 -81 -5 -3 -9 -39 -9 -80 0 -54 -4 -80 -15 -90
-9 -10 -15 -35 -15 -67 0 -30 -7 -60 -15 -71 -9 -12 -15 -42 -15 -74 0 -29 -5
-62 -10 -73 -6 -10 -14 -48 -17 -84 -3 -36 -10 -68 -14 -71 -5 -3 -9 -38 -9
-77 0 -44 -6 -83 -15 -101 -8 -15 -15 -52 -15 -80 0 -29 -5 -57 -10 -62 -6 -6
-13 -35 -16 -65 -3 -30 -10 -63 -15 -74 -4 -11 -10 -38 -11 -60 l-3 -40 -2779
-3 c-1920 -1 -2783 1 -2790 8 -7 7 -7 13 -1 18 19 14 45 108 45 165 0 31 4 57
9 57 4 0 11 34 14 76 3 42 10 81 16 87 6 6 11 31 11 57 0 25 7 54 15 64 10 13
15 43 15 82 0 34 7 78 15 97 8 20 15 59 15 86 0 27 4 52 9 55 4 3 12 42 15 86
4 44 12 80 17 80 5 0 9 28 9 63 1 39 6 69 15 81 10 14 15 45 15 98 0 43 4 78
9 78 4 0 12 32 15 70 4 39 11 70 15 70 8 0 29 124 37 220 3 36 10 70 16 77 5
6 12 46 15 87 3 42 9 76 13 76 5 0 11 36 15 80 4 44 11 83 16 86 5 3 9 29 9
57 0 29 7 70 15 92 8 22 14 63 15 90 0 28 6 57 12 63 7 7 16 41 20 75 14 120
30 212 39 222 5 5 9 34 9 65 0 31 5 61 11 67 6 6 13 42 16 80 2 37 8 77 13 88
5 11 12 50 15 87 4 37 11 70 16 73 5 4 9 34 9 68 1 35 7 73 15 87 8 14 14 49
15 78 0 29 7 69 15 89 8 19 15 57 15 84 0 26 4 50 9 53 4 3 11 44 15 91 5 58
13 93 24 106 16 19 55 19 2773 19 l2756 0 19 -21z"/>
    </g>
</svg>
